<svg width="18" height="18" viewBox="0 0 18 18" fill="none" xmlns="http://www.w3.org/2000/svg">
<path fill-rule="evenodd" clip-rule="evenodd" d="M5 9C5 8.58579 5.33579 8.25 5.75 8.25H12.25C12.6642 8.25 13 8.58579 13 9C13 9.41421 12.6642 9.75 12.25 9.75L5.75 9.75C5.33579 9.75 5 9.41421 5 9Z" fill="#707070"/>
<path fill-rule="evenodd" clip-rule="evenodd" d="M7 13.5C7 13.0858 7.33579 12.75 7.75 12.75H10.25C10.6642 12.75 11 13.0858 11 13.5C11 13.9142 10.6642 14.25 10.25 14.25H7.75C7.33579 14.25 7 13.9142 7 13.5Z" fill="#707070"/>
<path fill-rule="evenodd" clip-rule="evenodd" d="M3 4.5C3 4.08579 3.33579 3.75 3.75 3.75L14.25 3.75C14.6642 3.75 15 4.08579 15 4.5C15 4.91421 14.6642 5.25 14.25 5.25L3.75 5.25C3.33579 5.25 3 4.91421 3 4.5Z" fill="#707070"/>
</svg>
